<svg width="10" height="6" viewBox="0 0 10 6" fill="none" xmlns="http://www.w3.org/2000/svg">
<path fill-rule="evenodd" clip-rule="evenodd" d="M4.44001 0.238946L4.99801 0.816946L5.55601 0.238946C5.48408 0.163305 5.39753 0.103077 5.3016 0.0619226C5.20568 0.020768 5.10239 -0.000453949 4.99801 -0.000453949C4.89363 -0.000453949 4.79034 0.020768 4.69442 0.0619226C4.59849 0.103077 4.51194 0.163305 4.44001 0.238946V0.238946ZM4.99801 1.97395L8.65001 5.75895C8.72196 5.8349 8.80864 5.8954 8.90475 5.93674C9.00086 5.97808 9.10438 5.9994 9.20901 5.9994C9.31363 5.9994 9.41716 5.97808 9.51327 5.93674C9.60938 5.8954 9.69606 5.8349 9.76801 5.75895C9.91629 5.60284 9.99896 5.39575 9.99896 5.18045C9.99896 4.96514 9.91629 4.75805 9.76801 4.60195L5.55801 0.238946L4.99801 0.816946L4.44001 0.238946L0.230009 4.60195C0.0817301 4.75805 -0.000945091 4.96514 -0.000945091 5.18045C-0.000945091 5.39575 0.0817301 5.60284 0.230009 5.75895C0.301936 5.83459 0.388491 5.89482 0.484415 5.93597C0.580339 5.97712 0.683629 5.99835 0.788009 5.99835C0.892388 5.99835 0.995678 5.97712 1.0916 5.93597C1.18753 5.89482 1.27408 5.83459 1.34601 5.75895L4.99801 1.97395Z" fill="#7effb0"/>
</svg>
